<svg xmlns="http://www.w3.org/2000/svg" viewBox="0 0 291.81 106.24"><defs><style>.cls-1,.cls-4,.cls-6{fill:#fff;}.cls-1,.cls-3,.cls-6,.cls-7,.cls-8{stroke:#040006;stroke-miterlimit:10;}.cls-1,.cls-3,.cls-7{stroke-width:3px;}.cls-2{fill:#01c6d6;}.cls-3{fill:#b3b4b3;}.cls-5,.cls-8{fill:#040006;}.cls-6{stroke-width:2px;}.cls-7{fill:none;}</style></defs><title>Recurso 1</title><g id="Capa_2" data-name="Capa 2"><g id="Capa_1-2" data-name="Capa 1"><circle class="cls-1" cx="53.12" cy="53.12" r="51.62"/><circle class="cls-2" cx="53.12" cy="53.12" r="47.75"/><rect class="cls-3" x="12.75" y="33.73" width="80.75" height="48.45" rx="12.92"/><rect class="cls-4" x="16.79" y="36.15" width="72.67" height="43.6" rx="12.92"/><path class="cls-5" d="M47.47,63.57a9.79,9.79,0,0,0-2.61.57,10.85,10.85,0,0,0-2.79,1.63,27.46,27.46,0,0,0-3.26,3.42,15.68,15.68,0,0,1-3.61,3.52,8.21,8.21,0,0,1-3,1.15,8,8,0,0,1-2.35,0,2.73,2.73,0,0,1-2-1.12,2,2,0,0,1,.07-2A1.67,1.67,0,0,1,29,70.06c.36,0,.63.34.76.94a.92.92,0,0,0,.11.33,3.11,3.11,0,0,0-.1-1.21c-.32-1.05-1.08-1.27-2.31-.67a2.33,2.33,0,0,0-1.29,1.61,5.32,5.32,0,0,0,0,1.91,6.64,6.64,0,0,0,4.56,4.68c2.62,1,5.91,1,10.5.2a22.21,22.21,0,0,0,2.94-.72,23.52,23.52,0,0,0,7.38-3.84,10.09,10.09,0,0,0,1.43-1.42,1,1,0,0,1,.2-.24,1.41,1.41,0,0,1,.18.23,11.84,11.84,0,0,0,1.55,1.53,24.48,24.48,0,0,0,8.74,4.16,42.09,42.09,0,0,0,4.47.74A17.8,17.8,0,0,0,74.64,78c3-.83,5-2.6,5.48-5a5.56,5.56,0,0,0,0-1.91,2.39,2.39,0,0,0-1.29-1.61,2.3,2.3,0,0,0-1.24-.31.92.92,0,0,0-.7.29,2.24,2.24,0,0,0-.5,1.44c0,.55,0,.61.13.13.18-.82.58-1.1,1.17-.83a1.81,1.81,0,0,1,.76,2.61c-.38.7-1.62,1.15-3.21,1.15A7.76,7.76,0,0,1,71,72.71a16,16,0,0,1-3.48-3.37c-2.27-2.69-3.33-3.7-4.79-4.54a8.71,8.71,0,0,0-7-.85,5.66,5.66,0,0,0-2.18,1.44l-.43.44-.42-.44A6.11,6.11,0,0,0,48,63.55Z"/><circle class="cls-6" cx="28.84" cy="55.63" r="10.77"/><circle class="cls-5" cx="28.84" cy="55.63" r="5.38"/><circle class="cls-4" cx="27.57" cy="54.36" r="1.79"/><circle class="cls-6" cx="76.51" cy="55.63" r="10.77"/><circle class="cls-5" cx="76.51" cy="55.63" r="5.38"/><circle class="cls-4" cx="75.24" cy="54.36" r="1.79"/><circle class="cls-5" cx="53.4" cy="10.3" r="2.69"/><polyline class="cls-7" points="53.12 33.73 53.12 24.51 55.68 21.95 53.4 19.67 53.4 12.36"/><path class="cls-8" d="M151,35.1a2.41,2.41,0,0,1,.72,1.77v32.5a2.37,2.37,0,0,1-.74,1.78,2.44,2.44,0,0,1-1.75.72,2.46,2.46,0,0,1-2.5-2.5V45.51L135.16,69.18A2.5,2.5,0,0,1,133,70.43a2.41,2.41,0,0,1-2.31-1.49L119.22,46V69.37a2.5,2.5,0,1,1-5,0V36.87a2.49,2.49,0,0,1,4.7-1.15l14.26,28.56,13.87-28.56a2.51,2.51,0,0,1,4-.62Z"/><path class="cls-8" d="M184.18,69.61a2.19,2.19,0,0,1-.65,1.61,2.36,2.36,0,0,1-1.75.65,2.42,2.42,0,0,1-2.16-1.2l-8.26-13.25h-7v12a2.49,2.49,0,0,1-.7,1.78,2.38,2.38,0,0,1-1.8.72,2.46,2.46,0,0,1-2.5-2.5V36.87a2.41,2.41,0,0,1,.72-1.8,2.48,2.48,0,0,1,1.78-.69h8.64a13.27,13.27,0,0,1,6.36,1.49A10.77,10.77,0,0,1,181.23,40a12,12,0,0,1,1.56,6.15,10.74,10.74,0,0,1-6.43,10L183.7,68A2.94,2.94,0,0,1,184.18,69.61ZM170.5,52.81A7.86,7.86,0,0,0,175.87,51,6,6,0,0,0,178,46.19,6.86,6.86,0,0,0,175.87,41a7.47,7.47,0,0,0-5.37-2h-6.14V52.81Z"/><path class="cls-8" d="M209.23,35.63a14.3,14.3,0,0,1,4.8,4.8,3.18,3.18,0,0,1,.58,1.72,2,2,0,0,1-1,1.73,2.23,2.23,0,0,1-1.25.34,2.61,2.61,0,0,1-1.34-.36,2.41,2.41,0,0,1-1-1,9.18,9.18,0,0,0-3.24-3.28,9.63,9.63,0,0,0-4.92-1.13A11,11,0,0,0,196,39.87,4.58,4.58,0,0,0,193.78,44a5.22,5.22,0,0,0,2,4.17q2,1.68,7.2,2.21,5.76.59,8.93,3.48a9.91,9.91,0,0,1,3.17,7.66,9.54,9.54,0,0,1-1.87,5.93,11.33,11.33,0,0,1-5,3.69,17.83,17.83,0,0,1-6.65,1.23,17.18,17.18,0,0,1-8.47-2.12,11.38,11.38,0,0,1-5.26-5.52,2.58,2.58,0,0,1-.24-1,1.8,1.8,0,0,1,.53-1.27,2.68,2.68,0,0,1,1.44-.74,1.79,1.79,0,0,1,.48-.05,2.63,2.63,0,0,1,1.47.46,2.79,2.79,0,0,1,1,1.22A7,7,0,0,0,196,66.54a12.19,12.19,0,0,0,5.61,1.29,10.84,10.84,0,0,0,6.1-1.65,5.19,5.19,0,0,0,2.49-4.54A6.14,6.14,0,0,0,208.08,57a10.89,10.89,0,0,0-6.43-2.37q-6-.59-9.36-3.48a9.18,9.18,0,0,1-3.41-7.28,8.39,8.39,0,0,1,1.75-5.3,11,11,0,0,1,4.8-3.41A19,19,0,0,1,202.27,34,13.39,13.39,0,0,1,209.23,35.63Z"/><path class="cls-8" d="M249.91,36.35a17.25,17.25,0,0,1,6.77,6.81,20.11,20.11,0,0,1,2.43,9.94,20.24,20.24,0,0,1-2.43,10,17.26,17.26,0,0,1-6.74,6.84,21.23,21.23,0,0,1-19.8,0,17.09,17.09,0,0,1-6.75-6.84,20.44,20.44,0,0,1-2.4-10,20.31,20.31,0,0,1,2.4-9.94,17.14,17.14,0,0,1,6.75-6.81,21.17,21.17,0,0,1,19.77,0Zm-17.23,4a13.46,13.46,0,0,0-5.06,5.28,16.24,16.24,0,0,0,0,15,13.58,13.58,0,0,0,5.09,5.3,14.86,14.86,0,0,0,14.68,0,13.58,13.58,0,0,0,5.09-5.3,16.24,16.24,0,0,0,0-15,13.46,13.46,0,0,0-5.06-5.28,15.11,15.11,0,0,0-14.74,0Z"/><path class="cls-8" d="M271.23,71.15a2.51,2.51,0,0,1-4.3-1.78V36.87a2.41,2.41,0,0,1,.72-1.8,2.47,2.47,0,0,1,1.78-.69H279A12.82,12.82,0,0,1,285.39,36a11.17,11.17,0,0,1,4.36,4.42,13.11,13.11,0,0,1,1.56,6.43,12.35,12.35,0,0,1-1.56,6.24,11,11,0,0,1-4.36,4.27A13,13,0,0,1,279,58.86h-7.11V69.37A2.48,2.48,0,0,1,271.23,71.15Zm13.17-19a7.18,7.18,0,0,0,2.11-5.35,7.81,7.81,0,0,0-2.11-5.62A7.12,7.12,0,0,0,279,39h-7.11V54.25H279A7.34,7.34,0,0,0,284.4,52.16Z"/></g></g></svg>